<svg xmlns="http://www.w3.org/2000/svg" viewBox="10.3 17.5 43.4 29.2" width="43.4" height="29.2"><path fill="#ffffff" fill-rule="nonzero" d="m15.290979 30.052938s4.130399-5.64466 11.712238-6.2286v-2.04792c-8.398599 0.679-16.003378 7.8456-16.003378 7.8456s4.451979 11.99646 16.003378 13.0949v-2.17672c-8.476999-1.0752-11.712378-10.4874-11.712378-10.4874zm11.712238 6.15804v1.99346c-6.406539-1.150758-8.518138-7.86058-8.518138-7.86058s3.409258-3.43322 8.518138-3.99v2.1875c-0.0032 0-0.0054-0.0011-0.0082-0.0011-2.68142-0.324198-5.109278 2.19954-5.109278 2.19954s1.507248 4.24858 5.11908 5.47134m0-18.2112-0.0048 3.7772c0.246524-0.0188 0.48421-0.035 0.73208-0.04352 9.54744-0.324198 15.4486 7.88928 15.4486 7.88928s-6.82516 8.75322-14.2684 8.75322c-0.682206 0-1.312352-0.06378-1.91228-0.17082v2.33576c0.512958 0.06552 1.0363 0.10422 1.59126 0.10422 6.92678 0 11.61652-3.56412 16.4664-7.78246 0.804216 0.648914 4.09654 2.22754 4.77344 2.91858-4.61188 3.89018-15.0412 7.02618-21.134 7.02618-0.587336 0-1.142638-0.0358-1.69708-0.0897v3.282122h26.000122v-28h-26.000002zm0 8.35478-0.0048-2.52952c0.243992-0.0146 0.481004-0.03032 0.732082-0.0384 6.865598-0.21728 11.05022 5.94426 11.05022 5.94426s-4.545402 6.8075-9.76166 6.8075c-0.750708 0-1.414862-0.12152-2.020642-0.32676v-7.66962c2.67274 0.325388 2.882222 1.51494 4.489002 4.21372l3.57378-3.03618s-2.289162-3.44722-6.68698-3.44722c-0.478032-1.64e-4 -0.926626 0.03374-1.375802 0.08192"/></svg>